<svg width="61" height="38" viewBox="0 0 61 38" version="1.1" xmlns="http://www.w3.org/2000/svg" xmlns:xlink="http://www.w3.org/1999/xlink">
<title>TP</title>
<desc>Created using Figma</desc>
<g id="Canvas" transform="translate(891 338)">
<g id="TP">
<use xlink:href="#path0_fill" transform="translate(-890 -350)" fill="#F3F3F3"/>
</g>
</g>
<defs>
<path id="path0_fill" d="M 28.44 22.88L 20.52 22.88L 20.52 50L 7.74 50L 7.74 22.88L -0.6 22.88L -0.06 12.74L 29.16 12.74L 28.44 22.88ZM 46.1152 38.36L 43.5352 38.36L 43.5352 50L 30.9352 50L 30.9352 12.74L 45.4552 12.74C 50.3752 12.74 53.9552 13.74 56.1952 15.74C 58.4352 17.74 59.5552 21.04 59.5552 25.64C 59.5552 30.24 58.4752 33.52 56.3152 35.48C 54.1552 37.4 50.7552 38.36 46.1152 38.36ZM 46.7152 29.66C 47.0752 29.02 47.2552 27.94 47.2552 26.42C 47.2552 24.9 47.0552 23.82 46.6552 23.18C 46.2952 22.54 45.5952 22.22 44.5552 22.22L 43.2952 22.22L 43.2952 30.62L 44.8552 30.62C 45.7752 30.62 46.3952 30.3 46.7152 29.66Z"/>
</defs>
</svg>
